
<global>
amp_veltrack=0
ampeg_release=0.35
</global>

<group>
group_label=PP
lpc_hicc1=42
lpc_locc1=0

<region>
hikey=a3
hivel=127
lokey=g#3
loop_end=261449
loop_mode=loop_continuous
loop_start=93982
loop_xfade=50240
lovel=1
lpc=xIxJQWxq98HbefFBdGdLwT1KK7+HdT0/FJc/QAjn7b90wpe/BOUlQKyWacCVyGFA4Ffev21jOr6abgNALz8UwItLlz+373i+vixrPqnPCzxGEf+9mKdpvy/Gqz93LMG+
lpc_rms=-46.47
pitch_keycenter=a3
sample=Soloviolin1_trill_maj3rd_PP_A3.opus
</region>

<region>
hikey=a4
hivel=127
lokey=g#4
loop_end=289946
loop_mode=loop_continuous
loop_start=97758
loop_xfade=52258
lovel=1
lpc=FEgIQfqCosE4xK9BbpxkwY7J7kCHPuXAUvjQQNVeM8A1XQm/FOVZQKK1ocBV63NA1fQwvz3IAsDmpXxAVSJYwN6N7j/wffm+4bsRP9VFsL+MSqM+jw9vP4Hkvb8lW4Y/
lpc_rms=-41.66
pitch_keycenter=a4
sample=Soloviolin1_trill_maj3rd_PP_A4.opus
</region>

<region>
hikey=a5
hivel=127
lokey=g#5
loop_end=283363
loop_mode=loop_continuous
loop_start=95479
loop_xfade=51040
lovel=1
lpc=aq7RQMFHNMHSDRxBfbKWwLCozD+0jxC+DLO+PhQEVL80l5Y/5MS1vMqsMjyI39A/PzPLv1S2jD/AZBw/Gm1Lv6TNDUDd+CHA0FDkPwlLD78peV4+KA8OvrWsFj/cSoQ+
lpc_rms=-44.50
pitch_keycenter=a5
sample=Soloviolin1_trill_maj3rd_PP_A5.opus
</region>

<region>
hikey=a6
hivel=127
lokey=g#6
loop_end=280024
loop_mode=loop_continuous
loop_start=115765
loop_xfade=61884
lovel=1
lpc=Vh0ZQXbOU8HF4TFBlRJ6wIO8j77n9z1AyMpEv7VoHT7+VDtAVHqBPpilQMCwyaE/gERvQJTQ4MAT8yBAxeiHQAbSwMDE455AVREAv1Ps0b8O8Og/jC0RvtpAMcDtdYBA
lpc_rms=-43.30
pitch_keycenter=a6
sample=Soloviolin1_trill_maj3rd_PP_A6.opus
</region>

<region>
hikey=b3
hivel=127
lokey=a#3
loop_end=270469
loop_mode=loop_continuous
loop_start=97224
loop_xfade=51973
lovel=1
lpc=ZIqOQccQOcJrDUVCXZvDwWaIhj+NImhA7vqEP7YaQcA37xlAD6NPPlxxhcBlEZtAOlWjv3uPacC7df1Ar2AVwTyi4kCgKybA2lCNv1+gPEAAw8+/GoTav+EONUBnAVS/
lpc_rms=-43.62
pitch_keycenter=b3
sample=Soloviolin1_trill_maj3rd_PP_B3.opus
</region>

<region>
hikey=b4
hivel=127
lokey=a#4
loop_end=278159
loop_mode=loop_continuous
loop_start=96209
loop_xfade=51430
lovel=1
lpc=K6pAQYvS9MFcOQ9C97fKwSdAYUHyOS3Bx6ETQQZtncBZj/A/EO87P/gcPcB+SkpAcODTv2vLKcAiFudA25f8wOR9tUBI0jLAuUDBPx1XrL8cb5M/dEK5vTpOq78zlMg/
lpc_rms=-41.74
pitch_keycenter=b4
sample=Soloviolin1_trill_maj3rd_PP_B4.opus
</region>

<region>
hikey=b5
hivel=127
lokey=a#5
loop_end=275317
loop_mode=loop_continuous
loop_start=101020
loop_xfade=54002
lovel=1
lpc=CO7TQEldSMEfx0FBwFjkwL/tZEAavc6//vwHQDLvJ8D2EDFATD0gP5YSRMDUtmVAEcHmv6GWvD8clDq/q2IOQFzjF8A8+iY/mCzVP7X7P8AMz0FA1sYlvxtU977Bg8c+
lpc_rms=-43.97
pitch_keycenter=b5
sample=Soloviolin1_trill_maj3rd_PP_B5.opus
</region>

<region>
hikey=E7
hivel=127
lokey=a#6
loop_end=285483
loop_mode=loop_continuous
loop_start=96509
loop_xfade=51590
lovel=1
lpc=LKorQRwfesG+kE9Bvc6LwLJljD+Q8Jw+KeInQNhu6b/Nm1dA4zBzwOf3Yz+cwoBAjFYbwe0QIkGGsYvAc++fvhzLN0AWSfK/S4luvyneAUCZlaK/KzsMQOuuDD+UrJC/
lpc_rms=-43.46
pitch_keycenter=B6
sample=Soloviolin1_trill_maj3rd_PP_B6.opus
</region>

<region>
hikey=c#4
hivel=127
lokey=c4
loop_end=266459
loop_mode=loop_continuous
loop_start=95783
loop_xfade=51202
lovel=1
lpc=k02DQffWMsL73EtC49jrwd4su0Cm9cI/LsuLP7L/LsC8i9o/DZ1AP+8rYsCMVWpA3OKMv4QQJcAyw8lAvRzUwLnTs0CtVbTALsy1QMoFEcB5IhfA4glJQIHh+r/dSzY/
lpc_rms=-44.36
pitch_keycenter=c#4
sample=Soloviolin1_trill_maj3rd_PP_C#4.opus
</region>

<region>
hikey=c#5
hivel=127
lokey=c5
loop_end=279282
loop_mode=loop_continuous
loop_start=111297
loop_xfade=59496
lovel=1
lpc=c1fMQIGnYsHzhnZBbOwiwQjap0CEr2nAcxlGQNZ4GsBU7js/8VW4Py6CNcD3CEFAfnoWwJ2VCT+spAxAF/EawCx1Sz9NKkE+hAY1P378lr+KbYE/Rsknv+D0yT4mrQk+
lpc_rms=-46.29
pitch_keycenter=c#5
sample=Soloviolin1_trill_maj3rd_PP_C#5.opus
</region>

<region>
hikey=c#6
hivel=127
lokey=c6
loop_end=276951
loop_mode=loop_continuous
loop_start=111358
loop_xfade=59529
lovel=1
lpc=7Y/7QLy0TMFJPipBZLi8wOVGfEBFPgvAbPqvP4sku7/8s8c/JOs2P21Phr804LU/9KNMv4B1/jw+4G8/Z5M9P03AqL/q5gs+FNuUP0/dZL+eVe8/q9iuwJcyk0AZAZi/
lpc_rms=-46.42
pitch_keycenter=c#6
sample=Soloviolin1_trill_maj3rd_PP_C#6.opus
</region>

<region>
hikey=d#4
hivel=127
lokey=d4
loop_end=275235
loop_mode=loop_continuous
loop_start=98938
loop_xfade=52889
lovel=1
lpc=IQoaQTg8ycEgQeNBxTaJwQmV2ECG0rPA647AQHRSBcARL6G/2PX8P6W76r+f4Nc/MXXvvg3swb8CpB5Ad+zsv4YZoz+fj4q//E+0PTIH4D8VZj7AzbgcQCz8vr+O+UA/
lpc_rms=-48.12
offset=11968
pitch_keycenter=d#4
sample=Soloviolin1_trill_maj3rd_PP_D#4.opus
</region>

<region>
hikey=d#5
hivel=127
lokey=d5
loop_end=277010
loop_mode=loop_continuous
loop_start=113387
loop_xfade=60613
lovel=1
lpc=MdzlQHoafMGwwolBk8dBwVHS7kCqDcvA3XunQNhMBsAzCqY9CerdP/65IsBMUVZAq/hTwFQw4T/cBbs/vAEQwHOURz+WqlQ+cCMnv/44vT+iKQ7A7TmLP9Vs+z6n3tO9
lpc_rms=-46.24
pitch_keycenter=d#5
sample=Soloviolin1_trill_maj3rd_PP_D#5.opus
</region>

<region>
hikey=d#6
hivel=127
lokey=d6
loop_end=276068
loop_mode=loop_continuous
loop_start=93932
loop_xfade=50213
lovel=1
lpc=RfgxQZa8k8EVxXVBKvO6wGw+Z0B2slDAunrbP3Gs8z7qETq+liDCP+uV4L/eVS9AVgjJvwq5BkCF1qO/dt4IP5GM5D9yX+y/nKUSQC1q/cCmJwRB+eqwv9X9hsAN/C9A
lpc_rms=-42.78
pitch_keycenter=d#6
sample=Soloviolin1_trill_maj3rd_PP_D#6.opus
</region>

<region>
hikey=f4
hivel=127
lokey=e4
loop_end=263058
loop_mode=loop_continuous
loop_start=94560
loop_xfade=50549
lovel=1
lpc=pTYcQTaQz8GfSPlBEoqgwYVdrUCelI2/zAZDQDeffcCHkwtAExGAPw/HaMAX2IlA9dghwPg03750jYpAQ5q4wLLpT0BsDIY+yfKDvw7MGr8XzGQ/D3czvIWo6b6h5L4+
lpc_rms=-45.26
pitch_keycenter=f4
sample=Soloviolin1_trill_maj3rd_PP_F4.opus
</region>

<region>
hikey=f5
hivel=127
lokey=e5
loop_end=286408
loop_mode=loop_continuous
loop_start=111319
loop_xfade=59507
lovel=1
lpc=H2lbQDw5ssCf9JFAOWLev994nD+Y1uG/knvlPxFOir9ZqSo/u/ScvrsbSz7f6RK+qTd0P9Nbtb+L7fE/A/juvz8a3T+kV1S/zB48P81Ppr9fYvc/8MmCvysJvT4raJU+
lpc_rms=-48.78
pitch_keycenter=f5
sample=Soloviolin1_trill_maj3rd_PP_F5.opus
</region>

<region>
hikey=f6
hivel=127
lokey=e6
loop_end=279984
loop_mode=loop_continuous
loop_start=111157
loop_xfade=59421
lovel=1
lpc=JAXGQAdfH8FGgtdAEGKXPjg4YD+J513AowJmQB0bkD3jVtc+taFYvtqAiT99BRu+lr6LPyKFqr8qt+o/hoPOvrLHgz8qC57AuM7RQGy+AcDH2gnA7C5JPhZNSkDRBxzA
lpc_rms=-46.09
pitch_keycenter=f6
sample=Soloviolin1_trill_maj3rd_PP_F6.opus
</region>

<region>
hivel=127
key=g3
loop_end=268789
loop_mode=loop_continuous
loop_start=96621
loop_xfade=51650
lovel=1
lpc=rPpAQWLI88HX0vZBM1tIwWW1IsCNeQZAaKCPQAo/sMCyKCZAfnT4voeLu7+nRjZAhxrLvwzki79kg0pAAcpnwPrxEUCCPpy++3+bvmVpK77JGpY/Zf37vw6HeT8TYME+
lpc_rms=-46.58
offset=10832
sample=Soloviolin1_trill_maj3rd_PP_G3.opus
</region>

<region>
hikey=g4
hivel=127
lokey=f#4
loop_end=276860
loop_mode=loop_continuous
loop_start=110454
loop_xfade=59045
lovel=1
lpc=GwdTQTUgEMJc5y5C6p/twUHwQEG6iMnAZErQQN9DksBDTSpA7k+UvurabsC35K1AbtsTwFdNa8AL+gdBdJIKwQwFnkDdXle/wENAv9URdj9M6RPAuedbQIYGPsAjBsg/
lpc_rms=-41.72
pitch_keycenter=g4
sample=Soloviolin1_trill_maj3rd_PP_G4.opus
</region>

<region>
hikey=g5
hivel=127
lokey=f#5
loop_end=286283
loop_mode=loop_continuous
loop_start=105941
loop_xfade=56633
lovel=1
lpc=PFxIQA2Ij8CUqEdAXNaHv6vhkz/r2s6/xnIdQE1Otb8Gi5A+W4InP8Nx1b5dNaI+MLpBPRT5Wz7NtQ4+L2iNvaCSEj0iazM/SnIPv4YIwj4MIsi+2QkfPzhr0b4k+uk+
lpc_rms=-47.42
pitch_keycenter=g5
sample=Soloviolin1_trill_maj3rd_PP_G5.opus
</region>

<region>
hikey=g6
hivel=127
lokey=f#6
loop_end=288806
loop_mode=loop_continuous
loop_start=111493
loop_xfade=59600
lovel=1
lpc=iXHLQK4oJMGpcQhBrgPfv1B0k75YHc6+bTnaP/zwZ78affE/0qxGvyztFj+w92C+ejrIvtt80T8ZMWW/mfVxwFoZqkCCnhHAIlTbv0xQ3D/DcsW+/SVAPqSpfb+HCoq+
lpc_rms=-48.04
pitch_keycenter=g6
sample=Soloviolin1_trill_maj3rd_PP_G6.opus
</region>
</group>

<group>
group_label=MF
lpc_hicc1=84
lpc_locc1=43

<region>
hikey=a3
hivel=127
lokey=g#3
loop_end=272009
loop_mode=loop_continuous
loop_start=92597
loop_xfade=49499
lovel=1
lpc=1wB0QT/pMMIwEGFCtCUewp48XEGgAsO/8ypOQEdN7MDoov5Ab9OOwIaXpL+svIJABhcrv6vwgcBFi9ZAmm0RwQwGHEET+qvAObMSwOki3UAf61vA/ooewEe1Q0BIeU+/
lpc_rms=-33.31
pitch_keycenter=a3
sample=Soloviolin1_trill_maj3rd_MF_A3.opus
</region>

<region>
hikey=a4
hivel=127
lokey=g#4
loop_end=279993
loop_mode=loop_continuous
loop_start=95243
loop_xfade=50914
lovel=1
lpc=uU3uQEXje8F8vH9BF881wRU85UBLFdvAxGq1QE2yY8A3NsI/uRifP28QnL/v9ZC+Kee1P/teHsB0iYZAGx5ywPcB+j+duSq/sJUlP2Tzzb/rhLA/3CSIvT3Bvb83r68/
lpc_rms=-32.85
pitch_keycenter=a4
sample=Soloviolin1_trill_maj3rd_MF_A4.opus
</region>

<region>
hikey=a5
hivel=127
lokey=g#5
loop_end=278176
loop_mode=loop_continuous
loop_start=95824
loop_xfade=51224
lovel=1
lpc=AkmoQApS98D5nsJA1pxJwJHPxj9rbAO/Wpz2PmqBCL93Ngs/vbl4PwaDcL6ePK4+aoEAP+2muj2rXqE+Mw9nPtKlq7wLcbk+lZ9XPqASEr+PeEA/yE2Cv7TAiz/lhM0+
lpc_rms=-35.16
pitch_keycenter=a5
sample=Soloviolin1_trill_maj3rd_MF_A5.opus
</region>

<region>
hikey=a6
hivel=127
lokey=g#6
loop_end=278082
loop_mode=loop_continuous
loop_start=95263
loop_xfade=50924
lovel=1
lpc=L+QQQVfVH8HPqAdBBHjWv2s8870P5gdAGdZiP/BKBL9rnYNAIIgxv704r78jY2o/+phXQMiFwMCVHI8/g095QIvInsDP7U1Auc5ovq29s7/ETts/XrZrv0iXGsBDwmZA
lpc_rms=-34.67
pitch_keycenter=a6
sample=Soloviolin1_trill_maj3rd_MF_A6.opus
</region>

<region>
hikey=b3
hivel=127
lokey=a#3
loop_end=280846
loop_mode=loop_continuous
loop_start=95744
loop_xfade=51182
lovel=1
lpc=PJhnQUEdGsJT6CpC0TqzwRlXMECwCfM+yZdJQFFDVsAXeYk/zAjfP+uKjsD8ZoJArrhSv5vxNcBMF7VAKOXCwPeLjkAmrADAm4nPPwmqsb/mOCa/2jUeQBLMIsBba6I/
lpc_rms=-30.76
pitch_keycenter=b3
sample=Soloviolin1_trill_maj3rd_MF_B3.opus
</region>

<region>
hikey=b4
hivel=127
lokey=a#4
loop_end=275066
loop_mode=loop_continuous
loop_start=93440
loop_xfade=49950
lovel=1
lpc=PEseQUo4uMGGNMZBPq+GwevqGkHjiwHBid/OQHOFa8BvpmJAIqYlwPwsVbyKAiBA2xF0wA4Qtj+HwhRAgLk9wNMOEEDcj66/tVF/vS3v+T9T0RDA8X1PP8n/uL5xqV8/
lpc_rms=-32.02
pitch_keycenter=b4
sample=Soloviolin1_trill_maj3rd_MF_B4.opus
</region>

<region>
hikey=b5
hivel=127
lokey=a#5
loop_end=281815
loop_mode=loop_continuous
loop_start=95139
loop_xfade=50858
lovel=1
lpc=HnOwQEwtGcGgVAlBZh2TwEnkJUAMq5e/94PVP3Flxb+ypfc/GOD3Psf107+/sK4/IV01P1vyYb/4o74/DCWEPe/jBb+ElR8/94/rPiaNFsDH4m9AGwX8v9CoAj/e0ZY9
lpc_rms=-34.75
pitch_keycenter=b5
sample=Soloviolin1_trill_maj3rd_MF_B5.opus
</region>

<region>
hikey=E7
hivel=127
lokey=a#6
loop_end=267274
loop_mode=loop_continuous
loop_start=116081
loop_xfade=62053
lovel=1
lpc=Ck8xQUl+PsG/nRRBpaKJP5M6EcBw1g5AZXqeQEFDzb9LjbQ/KZ1wvm4m7D6hGk1AFFoZwViRF0EDeyTAE4wSwIBuN0DSYbk/D557wJE6rT9QYbE/b/DgP5zBHr7xVy0/
lpc_rms=-35.05
pitch_keycenter=B6
sample=Soloviolin1_trill_maj3rd_MF_B6.opus
</region>

<region>
hikey=c#4
hivel=127
lokey=c4
loop_end=282397
loop_mode=loop_continuous
loop_start=96110
loop_xfade=51377
lovel=1
lpc=rfJcQRYDDsLdmBpC/jKowUJEbECnLtm/I7yrQN9Nh8DbdkQ/E+/lP7+qdMD351BAkzsev2y4HcDbcqRAmc2wwPYLjEA9oNu/W/nfP1BmFcCYyaA9mrr8PzUAFMCOEno/
lpc_rms=-30.58
pitch_keycenter=c#4
sample=Soloviolin1_trill_maj3rd_MF_C#4.opus
</region>

<region>
hikey=c#5
hivel=127
lokey=c5
loop_end=287877
loop_mode=loop_continuous
loop_start=112900
loop_xfade=60353
lovel=1
lpc=p/TOQJVBSMH7kUVBWtQIweNEvUCw/6bAwr6CQCRUN8ABsf4/83RAv8YT0L3jpiA+nlI3ue45xr9vYlJALWsUwLZBqj+404a/RhXHPzFCR79oqVw+0Ei0vsKIEr2Foyk/
lpc_rms=-37.02
pitch_keycenter=c#5
sample=Soloviolin1_trill_maj3rd_MF_C#5.opus
</region>

<region>
hikey=c#6
hivel=127
lokey=c6
loop_end=266110
loop_mode=loop_continuous
loop_start=91973
loop_xfade=49166
lovel=1
lpc=mCySQBMpy8BOXaxAOIEAwAgEKkDVowvA2n4oQMT7h7+xQac/qxCEPoKvWT+7XOE+P1Q3P6wrLT8tFSU/Qa7RPiyOLT+PbZ+/e20zQDtm178eQhZAzQ0gwIZ19j9a6ks+
lpc_rms=-37.68
pitch_keycenter=c#6
sample=Soloviolin1_trill_maj3rd_MF_C#6.opus
</region>

<region>
hikey=d#4
hivel=127
lokey=d4
loop_end=272688
loop_mode=loop_continuous
loop_start=93377
loop_xfade=49916
lovel=1
lpc=oHb+QBgnp8H5jcZB5HmCwQsNxEDoyEzAoAl2QPSzLcC1lq4/TK8svEZVD8Dc3X5AT7dCwJaK+r4wq2xA8dp3wPgV1D9BGSw+3veVPprU4L/cLLk/zUeVu1HiPL+EFxo/
lpc_rms=-35.48
pitch_keycenter=d#4
sample=Soloviolin1_trill_maj3rd_MF_D#4.opus
</region>

<region>
hikey=d#5
hivel=127
lokey=d5
loop_end=278209
loop_mode=loop_continuous
loop_start=93772
loop_xfade=50127
lovel=1
lpc=htqyQBZGNMGQRDdBUxr9wJJipUBzpIrAbHZ1QKCfEsBY/4U/zZswP0eLmL+ef8A/AnDTv4lQWz9O3bY/UA6+vzXjEz/dgoa+W699PmNjQL7sNIO9aDcMPgLBBb42chE/
lpc_rms=-37.34
pitch_keycenter=d#5
sample=Soloviolin1_trill_maj3rd_MF_D#5.opus
</region>

<region>
hikey=d#6
hivel=127
lokey=d6
loop_end=278518
loop_mode=loop_continuous
loop_start=94738
loop_xfade=50644
lovel=1
lpc=2AMLQRkoI8GnytlAMWBjPkRpuz/dn7+/c1YJQCfxRD5ho70/MNkxPxtnbT7biUo/kiO6PwCNbD9uWDU/orMmv7ggAUCxBsI+ZGfsP4yJxcAZKY1AWPCTP+TFRMCqvZ0/
lpc_rms=-34.12
pitch_keycenter=d#6
sample=Soloviolin1_trill_maj3rd_MF_D#6.opus
</region>

<region>
hikey=f4
hivel=127
lokey=e4
loop_end=280232
loop_mode=loop_continuous
loop_start=95399
loop_xfade=50997
lovel=1
lpc=518LQfPBq8Eqd7xBETtnweKwsUBvqYfA44KMQDXPLsA/Yqs/XxLEPlRCSsDXC5JAdwsdwDNoy79ak5lASMuNwGlx/j9NTBY+R/sVPtqjtb/G21I/M8WuPuIbdr/c7i0/
lpc_rms=-35.61
pitch_keycenter=f4
sample=Soloviolin1_trill_maj3rd_MF_F4.opus
</region>

<region>
hikey=f5
hivel=127
lokey=e5
loop_end=280906
loop_mode=loop_continuous
loop_start=94770
loop_xfade=50661
lovel=1
lpc=0qeFQFvytsA1HplAMPrgvzgsID9LAqq+uCtDP6bgtL9XF+A/SokZvjTTE7/lrZM/SctYvjtxzL4nppE/OgSOvlVwbD8rt4O/puTIP8hVh74APIe9ZqqNPWU4gr4npfw+
lpc_rms=-37.07
pitch_keycenter=f5
sample=Soloviolin1_trill_maj3rd_MF_F5.opus
</region>

<region>
hikey=f6
hivel=127
lokey=e6
loop_end=275312
loop_mode=loop_continuous
loop_start=93227
loop_xfade=49836
lovel=1
lpc=XlbVQHhQBcHW56lAdAoGQA/MpD/FfBLA2tlpQK8jsz9mlIE/QJEFQGFzej+xWs4/bZUBQAuSnT59XBJAbkfNP4w7Wj+pe1LAQvXUQNfucr91/om/Q44kvszKVUAyl4a/
lpc_rms=-35.00
pitch_keycenter=f6
sample=Soloviolin1_trill_maj3rd_MF_F6.opus
</region>

<region>
hivel=127
key=g3
loop_end=275707
loop_mode=loop_continuous
loop_start=94683
loop_xfade=50614
lovel=1
lpc=uvxWQal2EsKrYC9C6FfcwU+uzUCUsZ8+EUBZQCABmMA16C9Addj3PYKMf8B7EKBAIVbFv6isWsD8hdJA5G6/wAXdW0Bxkby/SiW4P5mhh764W0jAx1W8QAnhp8BczwdA
lpc_rms=-36.19
sample=Soloviolin1_trill_maj3rd_MF_G3.opus
</region>

<region>
hikey=g4
hivel=127
lokey=f#4
loop_end=269652
loop_mode=loop_continuous
loop_start=89090
loop_xfade=58100
lovel=1
lpc=8eVCQX9j+8GewgxCcrSjwfAfqkAJt0LAojauQAKhPcA3ovI+Pw3Wve8ok79aTnpAvXi/wKq0OEDENUVAFYeiwCzpNEBI1MU+bdl8v3UvHT+mE9i/ZAIvQPpZJ8A5kMA/
lpc_rms=-34.29
pitch_keycenter=g4
sample=Soloviolin1_trill_maj3rd_MF_G4.opus
</region>

<region>
hikey=g5
hivel=127
lokey=f#5
loop_end=271542
loop_mode=loop_continuous
loop_start=92949
loop_xfade=49687
lovel=1
lpc=dtiVQHso4MC7S61AOq7pv/5ECD/eDZM+eFOUvKeVFT4rJwY/aJi4PhJew75YdBQ+6oWgPioSab4jCp8/fZuEvgMc1z6xsJy+jqrFPmDrej76XGS+rghFP9N85r7ixCA+
lpc_rms=-35.01
pitch_keycenter=g5
sample=Soloviolin1_trill_maj3rd_MF_G5.opus
</region>

<region>
hikey=g6
hivel=127
lokey=f#6
loop_end=274080
loop_mode=loop_continuous
loop_start=92080
loop_xfade=49223
lovel=1
lpc=jELCQHL37sDZe9tA6oPevsUka7/5n9Y/KxMIQJHJB8BA9DlApXLBP2Pnyb+TLh5AsQsOwGNaO0BGwoe/HNhQwC6KbkBKNrG/XKQPwK97AkCkZwa+dDNSwLrScEBZ8FnA
lpc_rms=-36.19
pitch_keycenter=g6
sample=Soloviolin1_trill_maj3rd_MF_G6.opus
</region>
</group>

<group>
group_label=FF
lpc_hicc1=127
lpc_locc1=85

<region>
hikey=a3
hivel=127
lokey=g#3
loop_end=272902
loop_mode=loop_continuous
loop_start=98099
loop_xfade=52440
lovel=1
lpc=jO8oQcSlzcE8hddBq1xnwR4IE0AtCuW+YkEnQE7QB8BL/RY/RDOmP2mefcCNrYdABx/kvyx5FMDX56ZAh0CRwHqGQkDsMMm/pknPP1k4jr/nDU6+ROCmPhm5n77lO3M+
lpc_rms=-23.19
pitch_keycenter=a3
sample=Soloviolin1_trill_maj3rd_FF_A3.opus
</region>

<region>
hikey=a4
hivel=127
lokey=g#4
loop_end=270655
loop_mode=loop_continuous
loop_start=97291
loop_xfade=52009
lovel=1
lpc=0K+eQCIFEcGvnvxAmmuMwBT8IEBSHE3AYZJIQDj8O8BWJ+M/7liVvKsRC7/blRY+UCSgP6xg9r+2/eQ/AOBFvzZKGT5VJBy/0XGEP+Nau7+Wapw/ICIQv10uXD6hAbs+
lpc_rms=-26.44
pitch_keycenter=a4
sample=Soloviolin1_trill_maj3rd_FF_A4.opus
</region>

<region>
hikey=a5
hivel=127
lokey=g#5
loop_end=259666
loop_mode=loop_continuous
loop_start=93341
loop_xfade=49897
lovel=1
lpc=YcKVQA2hvsBp72lASVyuv5MOUj/h47G+XtOsPvd6QL6STpI+IaalP4MeCb/U0Ma93N6NP+Q4jby40Cw9uo1zPzi5cL8Rr0k/qU1HP/8RiL9Ajts+I6c9v7BNVD8Ccy0/
lpc_rms=-24.99
pitch_keycenter=a5
sample=Soloviolin1_trill_maj3rd_FF_A5.opus
</region>

<region>
hikey=a6
hivel=127
lokey=g#6
loop_end=291109
loop_mode=loop_continuous
loop_start=109927
loop_xfade=58764
lovel=1
lpc=sBYAQbfsucDt59pAxIUGQIgpVr/8Da5A0f3bPyt6sz5M98VABwQ5PyZ9vD+o3JI+ARQxQLtdEr/7BZTAl6icQM6OgMDAfqi/l7oIQBWXgMCohx+/VqN/Pwz9m8DuUhY/
lpc_rms=-24.47
pitch_keycenter=a6
sample=Soloviolin1_trill_maj3rd_FF_A6.opus
</region>

<region>
hikey=b3
hivel=127
lokey=a#3
loop_end=268472
loop_mode=loop_continuous
loop_start=96506
loop_xfade=51589
lovel=1
lpc=rTgXQeUdu8F9k8pBK6plwXb8TUCIATu/hSMxQD3NL8C6ohQ/KHHAP7kGP8BZ3y1Aprfav8kzUL8nX25Asll4wBQ/LkDMyK+/kCCUP15nOb+jVBo+dxXlvqIIND9zdnC+
lpc_rms=-24.08
pitch_keycenter=b3
sample=Soloviolin1_trill_maj3rd_FF_B3.opus
</region>

<region>
hikey=b4
hivel=127
lokey=a#4
loop_end=264760
loop_mode=loop_continuous
loop_start=95172
loop_xfade=50876
lovel=1
lpc=yi31QAipg8GdgnpBP8UMwSZFnEBk8LLAXCSxQLEbVsDGFek/xEQEvv5B0r8F8BJAFewnwCdUnz9PIMk/rrcAwG72ZT/flDe/wTfZP19CA8DCtME/AwpSv5B1kz5YbOY+
lpc_rms=-25.02
pitch_keycenter=b4
sample=Soloviolin1_trill_maj3rd_FF_B4.opus
</region>

<region>
hikey=b5
hivel=127
lokey=a#5
loop_end=281835
loop_mode=loop_continuous
loop_start=113008
loop_xfade=60411
lovel=1
lpc=B72GQMEGn8AWCmhAIuSavzmkyj9DK6G/zEb1P4DIXb/mE68+oHlTPhCS/z4JT+q9HU9eP8tQ1T0dawQ/AkyHPRV6cD/Ca2A9A7DzvTCfW7/PZPo/H76bv2HmKT93daK+
lpc_rms=-25.24
pitch_keycenter=b5
sample=Soloviolin1_trill_maj3rd_FF_B5.opus
</region>

<region>
hikey=E7
hivel=127
lokey=a#6
loop_end=285981
loop_mode=loop_continuous
loop_start=95475
loop_xfade=51038
lovel=1
lpc=+TK9QDlyT8Ao2YlA/bo2PwzJlD950iRAF2qjP3yQ/T8Ymh5AXLomPzoG1b84RYRA52V9wKzqNb2Barc/puEvwEcWnj85Ve2/N0Clvu59aL8AroS/Q2atv3UVHEBxoT6/
lpc_rms=-28.19
pitch_keycenter=B6
sample=Soloviolin1_trill_maj3rd_FF_B6.opus
</region>

<region>
hikey=c#4
hivel=127
lokey=c4
loop_end=271869
loop_mode=loop_continuous
loop_start=97728
loop_xfade=52242
lovel=1
lpc=HgshQVdhycE4DNxBCt56wZbYVEBmkKy/WjSGQBN8hMAz5JM/nIIFQOv2i8DKmHVAQqizv3iU37+zoY1AbDSEwKm5HEABU5m/QvjdPxFB2r+Pykk/pPI3vx/WND+1EZa+
lpc_rms=-23.14
pitch_keycenter=c#4
sample=Soloviolin1_trill_maj3rd_FF_C#4.opus
</region>

<region>
hikey=c#5
hivel=127
lokey=c5
loop_end=260128
loop_mode=loop_continuous
loop_start=93507
loop_xfade=49986
lovel=1
lpc=TTeeQAM1GsED5wtByCacwLthO0BH7VnA4nFbQJoDLcCKXM8/gjBLvU3bV78eLpE/sCOXv4ANOD5rvro/teuIv9lPCT4JrTi+0TNCPxEdAL8LWcI+7M/WvqlqiT1k4rw+
lpc_rms=-28.86
pitch_keycenter=c#5
sample=Soloviolin1_trill_maj3rd_FF_C#5.opus
</region>

<region>
hikey=c#6
hivel=127
lokey=c6
loop_end=270100
loop_mode=loop_continuous
loop_start=97092
loop_xfade=51902
lovel=1
lpc=Gw2XQAfFxcAD96tA9qzQv+Vh5D9fSHu/HbK5P+2kGT5AXX4+I76jP1XAkb5dN20/5Y77PmXfBz90jbY+grSEP/NcLb6ktqe9I3bZP6Xzc7/BiAFA1JhnwNv4YkBaWKO/
lpc_rms=-26.30
pitch_keycenter=c#6
sample=Soloviolin1_trill_maj3rd_FF_C#6.opus
</region>

<region>
hikey=d#4
hivel=127
lokey=d4
loop_end=273003
loop_mode=loop_continuous
loop_start=98135
loop_xfade=52460
lovel=1
lpc=2BIIQWANrsFXU75BqrhLwZVT3z/PwIE+k+zWP8gnir+bqt2+yNSoP4jf5b8dzQdAvcAYwDey5T4GBz5Ae9CNwGgfPkBnpS2/AXVqPn5jE79+shK+IjmFP82wn7+rTkk/
lpc_rms=-27.29
pitch_keycenter=d#4
sample=Soloviolin1_trill_maj3rd_FF_D#4.opus
</region>

<region>
hikey=d#5
hivel=127
lokey=d5
loop_end=264639
loop_mode=loop_continuous
loop_start=95129
loop_xfade=50853
lovel=1
lpc=DrmSQDWNCMFbpOpAq2NtwA9IGUAi4DHA1cNDQJLqK8A8uCFAJjiFv8MIGj5dxh8/Mvhxv4nVxz7Xo6k/tdVyv9T7770JuXo+yiEYvlSh/z4ZFJG+QsYHvuEIVD7eKpU+
lpc_rms=-29.57
pitch_keycenter=d#5
sample=Soloviolin1_trill_maj3rd_FF_D#5.opus
</region>

<region>
hikey=d#6
hivel=127
lokey=d6
loop_end=262625
loop_mode=loop_continuous
loop_start=94405
loop_xfade=50466
lovel=1
lpc=C62BQHK5o8BPcHBA/amHPhe6ZT+ebb6+CeyWP53IPD8lNZM+VGWXP1J7aT4gdCE/v4uyP/q6274OdOI/cLtDvxHxkj8yZ2w/z+SIPQd7yr/SMOA/tHuvP5O8JcCSHq4/
lpc_rms=-25.45
pitch_keycenter=d#6
sample=Soloviolin1_trill_maj3rd_FF_D#6.opus
</region>

<region>
hikey=f4
hivel=127
lokey=e4
loop_end=275712
loop_mode=loop_continuous
loop_start=99109
loop_xfade=52980
lovel=1
lpc=p/MYQQGPs8Fd4rdBhXwywXTkhD5GdDI/zxCSPyjRhr+d47G9nlCFP3wK57/I9TVAFMU5wIHbsz6eGWNAhsB+wIQPsj+W75w+QE2qPhKVQ7+XDde+avZ0P13x277pULY+
lpc_rms=-27.74
pitch_keycenter=f4
sample=Soloviolin1_trill_maj3rd_FF_F4.opus
</region>

<region>
hikey=f5
hivel=127
lokey=e5
loop_end=262313
loop_mode=loop_continuous
loop_start=94293
loop_xfade=50406
lovel=1
lpc=mbyGQJyH1cAbhbBAh9wRwCcV6j9iXxvAZycKQIavtb+N4pM/7Cz4vQhJ874fZUM/mnMAPzhmLb979Xg/niTpvqj6Lz7XZWU+Q9Q4PkaBQr+Xo4g/v5L/vXK0tL4+s4E/
lpc_rms=-28.39
pitch_keycenter=f5
sample=Soloviolin1_trill_maj3rd_FF_F5.opus
</region>

<region>
hikey=f6
hivel=127
lokey=e6
loop_end=279176
loop_mode=loop_continuous
loop_start=112103
loop_xfade=59927
lovel=1
lpc=mGalQCjgqMBzsoZAyrHaPzwrWj7jQrE/fELvP+3vSj/wzANAjUglQKCNxT7yPC1AoKAZQIP+Qz5JExxA4iYUQJtxez8SrMm/M2eGQO6Wmrs0zcW+PsDNP3eu/r6Wx8Y/
lpc_rms=-26.57
pitch_keycenter=f6
sample=Soloviolin1_trill_maj3rd_FF_F6.opus
</region>

<region>
hivel=127
key=g3
loop_end=268840
loop_mode=loop_continuous
loop_start=96639
loop_xfade=51660
lovel=1
lpc=3XUlQXLGzMFF1d5BxA2BwQ/CZUD7/ZS/OxtxQLA0X8DNt6Y/XrLrP1k7nMCx+YdAA9qDv0XOJcDxoJZA35WIwERSTkCjife/KfjFP6szi7+s76O+vx6CPwAYgL9yZjU/
lpc_rms=-23.19
sample=Soloviolin1_trill_maj3rd_FF_G3.opus
</region>

<region>
hikey=g4
hivel=127
lokey=f#4
loop_end=274588
loop_mode=loop_continuous
loop_start=98705
loop_xfade=52764
lovel=1
lpc=KGYyQUCY38FCM/BBwdWAwdchHUAbM9e+PQJOQNVBH8Bvixc/XD3TP1/bZcCHfXpAeYhywOfgpT5hIZpAfqu2wBMyVkAQPZ+/2lzwP+O2CMDXh9C5b1XAP4l66b/SM6c/
lpc_rms=-24.28
pitch_keycenter=g4
sample=Soloviolin1_trill_maj3rd_FF_G4.opus
</region>

<region>
hikey=g5
hivel=127
lokey=f#5
loop_end=276482
loop_mode=loop_continuous
loop_start=99386
loop_xfade=53128
lovel=1
lpc=yj1uQDCXpcDuIIpAaHIAwOahiD8vG12/dVltP5LQRb7iBoc+KQEvPwM4D7+q5oI+pjdzPnSmzj7O/Wy+18kZP3J1jL5OyS0//+CkvlGNE76xnRE/xtH5POEDmz5zt8e+
lpc_rms=-25.83
pitch_keycenter=g5
sample=Soloviolin1_trill_maj3rd_FF_G5.opus
</region>

<region>
hikey=g6
hivel=127
lokey=f#6
loop_end=288143
loop_mode=loop_continuous
loop_start=118194
loop_xfade=63183
lovel=1
lpc=ywGJQEQzWsD3BUJAgMihP+mBtz/wRyy+3uAmQFZoeT/16ok/Xds9QLEmxb3N8UdABe8GvvukKUBjNJg/zsohvyZqdD+ZO/A/cRx3vrhYTL+PdwpAE6k4v9ZmOj+vEcS+
lpc_rms=-28.70
pitch_keycenter=g6
sample=Soloviolin1_trill_maj3rd_FF_G6.opus
</region>
</group>